<svg id="Capa_1" enable-background="new 0 0 512 512" height="512" viewBox="0 0 512 512" width="512" xmlns="http://www.w3.org/2000/svg" xmlns:xlink="http://www.w3.org/1999/xlink"><linearGradient id="SVGID_1_" gradientUnits="userSpaceOnUse" x1="256" x2="256" y1="512" y2="0"><stop offset="0" stop-color="#fd5900"/><stop offset="1" stop-color="#ffde00"/></linearGradient><g><g><path d="m316 60c0-33.084-26.916-60-60-60s-60 26.916-60 60 26.916 60 60 60 60-26.916 60-60zm-60 30c-16.542 0-30-13.458-30-30s13.458-30 30-30 30 13.458 30 30-13.458 30-30 30zm-90 150h180c8.284 0 15-6.716 15-15v-42.608c0-46.468-58.568-62.392-105-62.392-46.287 0-105 15.942-105 62.392v42.608c0 8.284 6.716 15 15 15zm15-57.608c0-23.598 46.003-32.392 75-32.392 25.326 0 75 7.483 75 32.392v27.608h-150zm132.48 187.929c4.596-6.893 2.733-16.206-4.16-20.801l-38.32-25.548v-36.972c0-8.284-6.716-15-15-15s-15 6.716-15 15v36.972l-38.32 25.547c-6.893 4.595-8.756 13.908-4.161 20.801 4.61 6.915 13.929 8.742 20.801 4.16l36.68-24.452 36.68 24.453c6.881 4.587 16.198 2.745 20.8-4.16zm153.52-38.321c0-33.084-26.916-60-60-60s-60 26.916-60 60 26.916 60 60 60 60-26.916 60-60zm-60 30c-16.542 0-30-13.458-30-30s13.458-30 30-30 30 13.458 30 30-13.458 30-30 30zm-242-30c0-33.084-26.916-60-60-60s-60 26.916-60 60 26.916 60 60 60 60-26.916 60-60zm-60 30c-16.542 0-30-13.458-30-30s13.458-30 30-30 30 13.458 30 30-13.458 30-30 30zm302 30c-46.287 0-105 15.942-105 62.392v42.608c0 8.284 6.716 15 15 15h180c8.284 0 15-6.716 15-15v-42.608c0-46.468-58.568-62.392-105-62.392zm75 90h-150v-27.608c0-23.598 46.003-32.392 75-32.392 6.785 0 30.516.596 50.99 8.262 24.01 8.991 24.01 20.386 24.01 24.13zm-377-90c-46.287 0-105 15.942-105 62.392v42.608c0 8.284 6.716 15 15 15h180c8.284 0 15-6.716 15-15v-42.608c0-46.474-58.581-62.392-105-62.392zm75 90h-150v-27.608c0-23.598 46.003-32.392 75-32.392 25.326 0 75 7.483 75 32.392z" fill="url(#SVGID_1_)"/></g></g></svg>